<svg width="71" height="70" viewBox="0 0 71 70" fill="none" xmlns="http://www.w3.org/2000/svg">
<rect x="0.125" width="70" height="70" rx="35" fill="#2F9E41"/>
<path d="M43.25 34.2895H26V27.1842H43.25M41.0938 42.8158C40.5219 42.8158 39.9734 42.5912 39.569 42.1915C39.1647 41.7917 38.9375 41.2495 38.9375 40.6842C38.9375 40.1189 39.1647 39.5767 39.569 39.177C39.9734 38.7772 40.5219 38.5526 41.0938 38.5526C41.6656 38.5526 42.2141 38.7772 42.6184 39.177C43.0228 39.5767 43.25 40.1189 43.25 40.6842C43.25 41.2495 43.0228 41.7917 42.6184 42.1915C42.2141 42.5912 41.6656 42.8158 41.0938 42.8158ZM28.1562 42.8158C27.5844 42.8158 27.0359 42.5912 26.6316 42.1915C26.2272 41.7917 26 41.2495 26 40.6842C26 40.1189 26.2272 39.5767 26.6316 39.177C27.0359 38.7772 27.5844 38.5526 28.1562 38.5526C28.7281 38.5526 29.2766 38.7772 29.6809 39.177C30.0853 39.5767 30.3125 40.1189 30.3125 40.6842C30.3125 41.2495 30.0853 41.7917 29.6809 42.1915C29.2766 42.5912 28.7281 42.8158 28.1562 42.8158ZM23.125 41.3947C23.125 42.6453 23.6856 43.7679 24.5625 44.5495V47.0789C24.5625 47.4558 24.714 47.8173 24.9835 48.0838C25.2531 48.3503 25.6188 48.5 26 48.5H27.4375C27.8187 48.5 28.1844 48.3503 28.454 48.0838C28.7235 47.8173 28.875 47.4558 28.875 47.0789V45.6579H40.375V47.0789C40.375 47.4558 40.5264 47.8173 40.796 48.0838C41.0656 48.3503 41.4313 48.5 41.8125 48.5H43.25C43.6312 48.5 43.9969 48.3503 44.2665 48.0838C44.5361 47.8173 44.6875 47.4558 44.6875 47.0789V44.5495C45.5644 43.7679 46.125 42.6453 46.125 41.3947V27.1842C46.125 22.2105 40.9788 21.5 34.625 21.5C28.2712 21.5 23.125 22.2105 23.125 27.1842V41.3947Z" fill="white"/>
</svg>
